<svg xmlns="http://www.w3.org/2000/svg" viewBox="0 0 152 24"><path fill="#303133" d="m41.424 18.757v-17.206h4.2031v17.206h-4.2031zm-6.0467-13.74v-3.4658h16.198v3.4658h-16.198z"/><path fill="#303133" d="m58.49 19.273c-1.2453 0-2.3023-0.2376-3.1707-0.7128-0.8521-0.4916-1.4994-1.2044-1.9419-2.1384-0.4424-0.9341-0.6636-2.0647-0.6636-3.392v-8.4555h4.0802v7.6197c0 0.8685 0.1229 1.5895 0.3687 2.1631 0.2458 0.5571 0.6145 0.975 1.1061 1.2535 0.508 0.2786 1.1389 0.4179 1.8927 0.4179 0.7701 0 1.4256-0.1639 1.9664-0.4916 0.5571-0.3277 0.975-0.7947 1.2535-1.401 0.295-0.6063 0.4425-1.311 0.4425-2.1139v-7.4477h4.0802v14.183h-4.0802v-4.1295l0.3441 0.2458c-0.3933 1.4584-1.0897 2.5563-2.0893 3.2937-0.9832 0.7374-2.1794 1.1061-3.5887 1.1061z"/><path fill="#303133" d="m71.513 18.757v-14.183h4.0311v5.3338l0.0738 0.36867v8.4801h-4.1049zm3.6133-6.0713c0-1.9008 0.1802-3.4739 0.5407-4.7193 0.3769-1.2454 0.9013-2.1712 1.5731-2.7775 0.6883-0.6063 1.5076-0.90945 2.458-0.90945 0.4097 0 0.7865 0.05735 1.1307 0.17205 0.3605 0.09832 0.6718 0.23761 0.934 0.41786v3.7853c-0.295-0.21303-0.6473-0.37689-1.0569-0.4916-0.3933-0.1147-0.8276-0.17206-1.3028-0.17206-1.1634 0-2.0892 0.40967-2.7775 1.229-0.6882 0.81931-1.0241 2.0237-1.0077 3.6132l-0.4916-0.1475z"/><path fill="#303133" d="m83.972 18.757v-13.716h4.0802v13.716h-4.0802zm2.0647-14.846c-0.4588 0-0.8685-0.08193-1.229-0.2458-0.3605-0.18025-0.6473-0.41786-0.8603-0.71281-0.1966-0.29496-0.2949-0.63089-0.2949-1.0078 0-0.3605 0.0983-0.68823 0.2949-0.98319 0.213-0.29496 0.4998-0.52437 0.8603-0.68824 0.3769-0.16386 0.7866-0.2458 1.229-0.2458s0.8357 0.081932 1.1798 0.2458c0.3605 0.16387 0.6391 0.39328 0.8357 0.68824 0.2131 0.29496 0.3196 0.62269 0.3196 0.98319 0 0.37689-0.1065 0.71282-0.3196 1.0078-0.1966 0.29495-0.4752 0.53256-0.8357 0.71281-0.3441 0.16387-0.7374 0.2458-1.1798 0.2458z"/><path fill="#303133" d="m91.135 23.919c-0.5244 0-1.0406-0.0737-1.5485-0.2212-0.508-0.1475-0.9259-0.3195-1.2536-0.5162v-2.925c0.5735 0.4261 1.188 0.6391 1.8435 0.6391 0.5571 0 0.9832-0.1639 1.2781-0.4916 0.3114-0.3277 0.467-0.8357 0.467-1.5239v-13.863h4.0803v14.502c0 0.8849-0.1967 1.6551-0.5899 2.3105-0.3933 0.6719-0.9586 1.188-1.696 1.5486-0.721 0.3605-1.5813 0.5407-2.5809 0.5407zm2.8512-20.008c-0.4588 0-0.8684-0.08193-1.229-0.2458-0.3605-0.18025-0.6472-0.41786-0.8602-0.71281-0.1967-0.29496-0.295-0.63089-0.295-1.0078 0-0.3605 0.0983-0.68823 0.295-0.98319 0.213-0.29496 0.4997-0.52437 0.8602-0.68824 0.3606-0.16386 0.7702-0.2458 1.229-0.2458 0.4425 0 0.8357 0.081932 1.1799 0.2458 0.3605 0.16387 0.639 0.39328 0.8357 0.68824 0.1966 0.29496 0.2949 0.62269 0.2949 0.98319 0 0.37689-0.0983 0.71282-0.2949 1.0078-0.1967 0.29495-0.4752 0.53256-0.8357 0.71281-0.3442 0.16387-0.7374 0.2458-1.1799 0.2458z"/><path fill="#303133" d="m107.12 19.175c-1.671 0-3.146-0.3359-4.424-1.0078-1.262-0.6718-2.237-1.5895-2.9251-2.7529-0.6719-1.1634-1.0078-2.458-1.0078-3.8836 0-1.442 0.3359-2.7284 1.0078-3.859 0.6881-1.1471 1.6631-2.0483 2.9251-2.7038s2.736-0.98319 4.424-0.98319c1.704 0 3.187 0.32773 4.449 0.98319 1.262 0.63907 2.229 1.5321 2.901 2.6792 0.671 1.147 1.007 2.4416 1.007 3.8836 0 1.4256-0.336 2.7202-1.007 3.8836-0.672 1.1634-1.647 2.0811-2.925 2.7529-1.262 0.6719-2.737 1.0078-4.425 1.0078zm0-3.2691c0.869 0 1.622-0.1803 2.262-0.5408 0.639-0.3768 1.13-0.893 1.474-1.5485 0.344-0.6554 0.517-1.401 0.517-2.2367 0-0.8358-0.173-1.5814-0.517-2.2368s-0.835-1.1634-1.474-1.524c-0.64-0.3605-1.393-0.54075-2.262-0.54075-0.852 0-1.606 0.18025-2.261 0.54075-0.639 0.36051-1.131 0.86849-1.475 1.524-0.328 0.65546-0.492 1.401-0.492 2.2368 0 0.8357 0.164 1.5813 0.492 2.2367 0.344 0.6555 0.836 1.1717 1.475 1.5485 0.655 0.3605 1.409 0.5408 2.261 0.5408z"/><path fill="#303133" d="m128.06 19.175c-1 0-1.909-0.1639-2.728-0.4916-0.82-0.3277-1.524-0.8029-2.114-1.4256-0.574-0.6391-1.016-1.3929-1.328-2.2614l0.344-0.2703v4.0311h-4.055v-17.698h4.055v7.841l-0.245-0.29496c0.245-0.93403 0.647-1.7452 1.204-2.4334 0.574-0.70462 1.286-1.2454 2.139-1.6223 0.868-0.37689 1.851-0.56533 2.949-0.56533 1.311 0 2.466 0.32773 3.466 0.98319 1.016 0.65546 1.794 1.5567 2.335 2.7038 0.557 1.147 0.836 2.4252 0.836 3.8344 0 1.5076-0.303 2.8431-0.91 4.0065-0.606 1.1471-1.434 2.0483-2.482 2.7038-1.033 0.6391-2.188 0.9586-3.466 0.9586zm-1.672-3.2937c0.869 0 1.623-0.1884 2.262-0.5653s1.13-0.8849 1.475-1.524c0.36-0.6554 0.54-1.3928 0.54-2.2121 0-0.8194-0.172-1.5486-0.516-2.1876-0.328-0.65546-0.811-1.1634-1.45-1.5239-0.639-0.37689-1.385-0.56534-2.237-0.56534s-1.606 0.18845-2.261 0.56534c-0.639 0.3605-1.131 0.87667-1.475 1.5485-0.344 0.67187-0.516 1.4175-0.516 2.2368 0 0.8029 0.164 1.5239 0.492 2.163 0.344 0.6391 0.827 1.1471 1.45 1.524 0.639 0.3605 1.384 0.5407 2.236 0.5407z"/><path fill="#303133" d="m143.81 19.175c-1.262 0-2.483-0.1639-3.663-0.4916-1.163-0.3277-2.22-0.8029-3.17-1.4256v-3.1708c0.868 0.6882 1.876 1.2126 3.023 1.5731 1.163 0.3605 2.327 0.5408 3.49 0.5408 0.885 0 1.557-0.1311 2.016-0.3933s0.688-0.6391 0.688-1.1307c0-0.3277-0.115-0.6227-0.344-0.8849-0.23-0.2621-0.68-0.4752-1.352-0.639l-3.146-0.762c-1.524-0.3769-2.622-0.8931-3.294-1.5485-0.672-0.6719-1.008-1.5158-1.008-2.5318 0-0.8521 0.263-1.6059 0.787-2.2613 0.541-0.65546 1.311-1.1634 2.31-1.524 1-0.3605 2.18-0.54075 3.54-0.54075 1.229 0 2.343 0.14748 3.343 0.44243 0.999 0.27857 1.86 0.64727 2.581 1.1061v3.0725c-0.738-0.50798-1.582-0.90945-2.532-1.2044-0.934-0.31135-1.942-0.46702-3.023-0.46702-0.951 0-1.672 0.1229-2.163 0.3687-0.476 0.22941-0.713 0.56534-0.713 1.0078 0 0.3605 0.164 0.64727 0.491 0.86029 0.328 0.21303 0.869 0.40147 1.623 0.56534l2.851 0.61453c1.393 0.2949 2.45 0.7783 3.171 1.4502 0.721 0.6554 1.081 1.5731 1.081 2.7529 0 0.9177-0.262 1.7288-0.786 2.4334-0.508 0.6882-1.262 1.229-2.262 1.6223-0.983 0.3769-2.163 0.5653-3.539 0.5653z"/><path fill="#FA824C" d="m10.114 1.3111c-0.93723 1.4432-0.40734 3.3808 1.1339 4.1462l10.267 5.0988-14.301-1.481c-1.7184-0.17796-3.2133 1.1702-3.2133 2.8978 0 9e-3 4e-5 0.0181 1.2e-4 0.0271-8e-5 9e-3 -1.2e-4 0.0181-1.2e-4 0.0271 0 1.7276 1.4949 3.0757 3.2133 2.8977l14.301-1.481-10.267 5.0988c-1.5412 0.7654-2.0711 2.7031-1.1339 4.1463 0.9372 1.4431 2.9228 1.7472 4.2489 0.6505l9.4607-7.8237 0.1039 3.9143c0.0445 1.6796 1.6021 2.907 3.2456 2.5577 1.6435-0.3494 2.5671-2.1042 1.9247-3.6567l-2.0531-4.9617 2.8802 0.9126c1.5249 0.4831 3.0797-0.6552 3.0797-2.2548 0-9e-3 -1e-4 -0.0181-2e-4 -0.0271 1e-4 -9e-3 2e-4 -0.0181 2e-4 -0.0271 0-1.5996-1.5548-2.7379-3.0797-2.2548l-2.8802 0.9126 2.0531-4.9617c0.6424-1.5526-0.2812-3.3073-1.9247-3.6567s-3.2011 0.87806-3.2456 2.5577l-0.1039 3.9142-9.4607-7.8237c-1.3261-1.0966-3.3117-0.79262-4.2489 0.65057z"/></svg>